inDegrees=no
num_controls=7
num_derivatives=13
num_iterations=112
num_multipliers=7
num_parameters=0
num_slacks=7
num_states=26
objective=0.444931
objective_accelerations=0.057591
objective_balance=0.003432
objective_effort=0.023041
objective_height=0.355374
objective_ligament=0.005492
solver_duration=1627.149839
status=Solve_Succeeded
success=true
DataType=double
version=3
OpenSimVersion=4.5
endheader
time	/jointset/ground_pelvis/pelvis_tilt/value	/jointset/ground_pelvis/pelvis_tx/value	/jointset/ground_pelvis/pelvis_ty/value	/jointset/hip_l/hip_flexion_l/value	/jointset/hip_l/hip_adduction_l/value	/jointset/hip_l/hip_rotation_l/value	/jointset/back/lumbar_extension/value	/jointset/patellofemoral_l/patellar_flexion_l/value	/jointset/knee_l/knee_flexion_l/value	/jointset/knee_l/knee_adduction_l/value	/jointset/knee_l/knee_rotation_l/value	/jointset/ankle_l/ankle_angle_l/value	/jointset/subtalar_l/subtalar_angle_l/value	/jointset/ground_pelvis/pelvis_tilt/speed	/jointset/ground_pelvis/pelvis_tx/speed	/jointset/ground_pelvis/pelvis_ty/speed	/jointset/hip_l/hip_flexion_l/speed	/jointset/hip_l/hip_adduction_l/speed	/jointset/hip_l/hip_rotation_l/speed	/jointset/back/lumbar_extension/speed	/jointset/patellofemoral_l/patellar_flexion_l/speed	/jointset/knee_l/knee_flexion_l/speed	/jointset/knee_l/knee_adduction_l/speed	/jointset/knee_l/knee_rotation_l/speed	/jointset/ankle_l/ankle_angle_l/speed	/jointset/subtalar_l/subtalar_angle_l/speed	/forceset/tau_hip_flexion_l	/forceset/tau_hip_adduction_l	/forceset/tau_hip_rotation_l	/forceset/tau_knee_flexion_l	/forceset/tau_ankle_angle_l	/forceset/tau_subtalar_angle_l	/forceset/tau_lumbar_extension	lambda_cid13_p0	lambda_cid13_p1	lambda_cid13_p2	lambda_cid13_p3	lambda_cid13_p4	lambda_cid13_p5	lambda_cid14_p0	/jointset/ground_pelvis/pelvis_tilt/accel	/jointset/ground_pelvis/pelvis_tx/accel	/jointset/ground_pelvis/pelvis_ty/accel	/jointset/hip_l/hip_flexion_l/accel	/jointset/hip_l/hip_adduction_l/accel	/jointset/hip_l/hip_rotation_l/accel	/jointset/back/lumbar_extension/accel	/jointset/patellofemoral_l/patellar_flexion_l/accel	/jointset/knee_l/knee_flexion_l/accel	/jointset/knee_l/knee_adduction_l/accel	/jointset/knee_l/knee_rotation_l/accel	/jointset/ankle_l/ankle_angle_l/accel	/jointset/subtalar_l/subtalar_angle_l/accel	gamma_cid13_p0	gamma_cid13_p1	gamma_cid13_p2	gamma_cid13_p3	gamma_cid13_p4	gamma_cid13_p5	gamma_cid14_p0
0	-0.03884967021627879	0.06861495162071207	0.8959236037465561	0.1955287580552426	-0.3222902938268285	-0.4777198136059961	-0.1379045077516729	0.0701528807908475	0.07015288079084844	-0.1745327188146599	-0.1124696986802592	-0.06701059314715049	0.00345032131024616	0	0	0	0	0	0	0	0	0	0	0	0	0	0.109590809991943	-0.1056057350496636	-0.0302530979104885	-0.2419803362556419	0.2026431571178911	-0.01258803309302435	-0.053469066084511	29.5700625206419	-2.262830297343176	2.940190931326347	-3.933289006479981	-515.1022223846606	-82.95000619988919	-39.77397899597472	-4.456995544756198	-1.775728819339912	-0.980124438395782	12.56194529547021	-2.14660584982435	3.330077269729433	-2.820389122631874	10.41677479604232	10.41677479604455	0.6509740782082292	-0.9075890298366204	2.506535085130773	-0.9909914582485259	-2.61632381154627e-08	9.16640968536415e-08	1.279536801943498e-07	5.555767555779329e-09	-7.633305298819679e-09	-5.218718068380471e-08	-9.535067463760761e-09
0.01	-0.03906216008291963	0.06852759664361029	0.8958760520005556	0.1961358470515283	-0.3223959073608031	-0.4775522718432248	-0.1380515605155324	0.07065885225214118	0.07065885225214448	-0.174503497677025	-0.112508449690949	-0.06688989068445932	0.003400091719321402	-0.0422843603531228	-0.01736961501084082	-0.009476399858546158	0.120830986942371	-0.02100994688168557	0.03339659482570795	-0.02916649901960443	0.1007335908101762	0.1007335908101803	0.005843505754127758	-0.00767065178350089	0.0240636442292106	-0.009965643649811657	0.1056579326325776	-0.1041394185717399	-0.02958979242138659	-0.2377348119544642	0.1974615401517393	-0.01072127259452827	-0.05002695575079728	27.9487211118066	-2.817599719994581	3.060527606476914	-3.617034605584117	-516.0089204767603	-83.8748398706248	-39.78432240140489	-4.082124871063932	-1.702369669362849	-0.9263068850194225	11.75564283039773	-2.06130378542128	3.327671133961496	-2.928172228796266	9.832547913134848	9.832547913134146	0.5509613678102803	-0.6848561801730818	2.344753285981897	-0.9873389124500159	-6.955972833796627e-08	1.427107238623669e-07	2.081160249785663e-07	4.7588877121466e-08	-2.434945282229014e-07	-1.018089362548336e-07	-1.397639560507091e-08
0.02	-0.03969108727118648	0.06826958715091874	0.8957347544308825	0.1979336394045987	-0.3227082432992096	-0.4770541200232036	-0.138482956657021	0.07215833895946853	0.07215833895946891	-0.1744158569730566	-0.1126215178049762	-0.06653085694064276	0.003252608073077934	-0.0832874643251872	-0.03413090311795174	-0.01874916473452387	0.238140671355829	-0.04134448088659574	0.06612201145021697	-0.05686867552606965	0.1987030492055347	0.1987030492055351	0.01168391326006233	-0.0148634206696527	0.04766625622504773	-0.01945081106372654	0.1017250552732711	-0.1026731020938226	-0.0289264869323268	-0.2334892876532631	0.1922799231855901	-0.008854512096037218	-0.0465848454170311	26.39168023178194	-3.38535783250044	3.184912540305074	-3.468757494660423	-515.9806110489724	-84.63609398961417	-39.81470609893478	-4.200744268544521	-1.654063438593927	-0.939397441882096	11.85768478968759	-2.011523274469299	3.195841629489644	-2.52752462000403	9.863948313078792	9.863948313079469	0.6503544285695265	-0.812012450366807	2.414328638456074	-0.8948962110692064	-1.129562185604698e-07	1.937573508710922e-07	2.882783697627827e-07	8.962198668715268e-08	-4.793557511469831e-07	-1.514306918258626e-07	-1.841772374638106e-08
0.03	-0.0407245179375211	0.06784682681090304	0.895501393868591	0.2008885826678249	-0.3232205103748331	-0.4762327064948642	-0.1391832713298822	0.07462442949278626	0.07462442949278432	-0.1742697929293432	-0.1128050282196766	-0.06593814608259271	0.00301267852615613	-0.1232096217532395	-0.05033497866282963	-0.02791530128553005	0.3523165701053291	-0.0609936364583975	0.09801085999317929	-0.08293735983146297	0.2940611737932685	0.2940611737932719	0.01750235945078354	-0.02180083888152544	0.07077063562009145	-0.02846899755241682	0.09700538613325557	-0.0996133167062523	-0.02809657635269867	-0.2286204036103053	0.1862573639616507	-0.007810585485633533	-0.04267847917280919	24.52917732314893	-3.588883019641211	3.304465261349655	-2.814544590095377	-515.8947357017264	-84.55554827785561	-39.86382458075384	-3.859607366517041	-1.590633584854332	-0.9041716200999073	11.11780992076256	-1.924370800100991	3.162894498634727	-2.608005453575003	9.303665683502249	9.303665683502276	0.5436758144137481	-0.6288989088343572	2.242699007297505	-0.8954277287147258	-1.420487371511773e-07	1.996842344504673e-07	3.462112537567862e-07	1.154230315561616e-07	-6.493352803550335e-07	-1.920399381700544e-07	-2.385319221229509e-08
0.04	-0.04215150135545233	0.0672646149209546	0.8951765819691113	0.2049693384191774	-0.3239258208264871	-0.4750969068747065	-0.1401365658693525	0.07803048550235012	0.07803048550235048	-0.1740663272037051	-0.1130567712969555	-0.06511755014713837	0.00268453754215819	-0.1619980146445477	-0.06602121310449634	-0.03703943217214924	0.4633031689820825	-0.07995315609281679	0.1289992298135487	-0.1074646488475764	0.3866961444562648	0.3866961444562675	0.02316424964511727	-0.02850995318287169	0.09324327170589368	-0.03709309847893976	0.09228571699317624	-0.09655353131867572	-0.0272666657730176	-0.2237515195673822	0.1802348047377034	-0.006766658875227963	-0.03877211292863723	22.72532127399193	-3.803131660962863	3.426248004092535	-2.316752845033241	-514.9578091945351	-84.32082169571454	-39.93013702121391	-3.973991361195708	-1.550495217951692	-0.9309963090046981	11.21982481513824	-1.873596086992814	3.015745884971072	-2.219245562148049	9.319317528131293	9.319317528131245	0.6190432292920058	-0.766351668261511	2.287979976607771	-0.8160790986357559	-1.708463284917447e-07	2.046808140416083e-07	4.036857983530533e-07	1.408893946788474e-07	-8.179564241256399e-07	-2.324633595817342e-07	-2.930915841686074e-08
0.05	-0.04396119014295694	0.06652805402148407	0.8947604786595089	0.210145249321799	-0.3248171714338643	-0.4736558097278898	-0.1413269277201839	0.08235010919351184	0.08235010919350966	-0.1738066584928358	-0.1133748505524332	-0.06407513291983231	0.002272365513039165	-0.1997255767861901	-0.0812086718520334	-0.04618952674505793	0.5713354021906306	-0.09818722791281581	0.1590953519691318	-0.1303766760653796	0.4767658556898881	0.476765855689916	0.028749748066035	-0.03504054154401232	0.1151260526860813	-0.04526611229183349	0.08690651096065183	-0.09158177352324913	-0.02632885279211014	-0.2186302197211095	0.1742570141373003	-0.006989457350341443	-0.03445433441141116	20.87855198669458	-3.507212332227272	3.520933989459031	-1.544410925167363	-514.1116126350538	-82.88117345515629	-40.01170435459442	-3.640025135857556	-1.490498578853956	-0.9084255348206873	10.51335651843541	-1.778914472680735	2.987763187999617	-2.292524513589983	8.78139311398777	8.781393113991697	0.5254227933460626	-0.586556430599988	2.121304699799587	-0.8067104661879129	-1.888862857961033e-07	2.117982954308074e-07	4.404592585289691e-07	1.587759692075264e-07	-9.233611115956853e-07	-2.563714907165972e-07	-3.190973485658297e-08
0.06	-0.04614173185092011	0.06564209305939828	0.8942525925034999	0.2163851693454505	-0.3258869831080763	-0.4719175077980887	-0.1427394784855926	0.08755654903560989	0.08755654903560972	-0.1734917108687908	-0.1137562644936383	-0.06281731237450931	0.001780703757076792	-0.2361685987361938	-0.09590122562754634	-0.05539600145345301	0.6761049931880694	-0.1156453694599085	0.1884401864106224	-0.1519024317629231	0.5640593746439078	0.5640593746439659	0.03422003228112906	-0.04117689032753891	0.1363239353092814	-0.05299104384759739	0.08152730492813193	-0.08661001572781711	-0.02539103981117923	-0.2135089198748344	0.1682792235369013	-0.007212255825447108	-0.03013655589418766	19.08481642781384	-3.219013233625081	3.615063174259689	-0.9129942080819957	-512.5002160375486	-81.29844174751663	-40.10632400433589	-3.717083322867958	-1.451514223546869	-0.9422723361019752	10.56729637291639	-1.718410032411558	2.86548834215258	-1.941991258096088	8.764079072210579	8.764079072211537	0.5960003881272554	-0.6875037527387065	2.15100030521029	-0.7264626472098046	-2.064732900884111e-07	2.190050779483457e-07	4.763610940977122e-07	1.763433947427736e-07	-1.026104053537286e-06	-2.795842412082258e-07	-3.439008435883811e-08
0.07000000000000001	-0.04868116724406035	0.06461171677180905	0.8936521060921995	0.2236581021146304	-0.3271275382174235	-0.4698898495427448	-0.1443596749288384	0.09362322929483941	0.09362322929484056	-0.173122400393051	-0.1141978197564643	-0.0613504361601345	0.001214253754957633	-0.2715081842896043	-0.1100837742318352	-0.06472369821214743	0.7779431113669473	-0.1323322004332451	0.2169593432047756	-0.171924169687246	0.6488214115302617	0.6488214115302926	0.03961560989877332	-0.04707718950785585	0.1569453222424934	-0.0602163130163736	0.07625576789875707	-0.0827024181545012	-0.02454041751907493	-0.2096023521171212	0.1632955978579241	-0.00678512846403257	-0.02594397458687406	17.62079092862728	-3.229835055992492	3.71006437658644	-0.5247183525679656	-511.0796312164396	-80.34330336485029	-40.21150540676187	-3.410862490771376	-1.388051048488919	-0.9315874227643761	9.911274857873796	-1.623871071469187	2.825245458190156	-2.000361979738831	8.263983054153773	8.263983054149005	0.5074600599291931	-0.5326832579158708	2.00180444835927	-0.7082499242869595	-2.134214778593906e-07	1.997451491206543e-07	4.923396375015884e-07	1.82426489268484e-07	-1.073832130520103e-06	-2.933015160558931e-07	-3.68381142400358e-08
0.08	-0.05156769175657352	0.06344222982425309	0.89295762889791	0.2319332571290956	-0.3285309719248383	-0.4675809764974299	-0.1461737081353562	0.1005238733343942	0.1005238733343927	-0.1726999094188636	-0.1146966560625393	-0.05968052676423101	0.000578012886635581	-0.3055864226107647	-0.1237233576208906	-0.07419415805129961	0.8765494422458365	-0.1482210890735628	0.2446831444046675	-0.1906697844171057	0.7308521307088534	0.73085213070885	0.04485613197026472	-0.05263309897768043	0.1769305716150095	-0.06694921708816794	0.07098423086933972	-0.07879482058118054	-0.02368979522698919	-0.2056957843594207	0.1583119721789437	-0.006358001102614394	-0.02175139327959583	16.20336905365448	-3.247007679485101	3.804012006980396	-0.2596505655453479	-508.9835525411854	-79.26113476874893	-40.3246190216144	-3.464813876417903	-1.342921180500159	-0.9708249521935248	9.920938912918654	-1.558821565807795	2.706417223300297	-1.686766619203437	8.217815530658067	8.217815530657713	0.5649892788966694	-0.618625810640234	2.0237727930711	-0.627989627813444	-2.196832903709296e-07	1.787776905287546e-07	5.070328072174087e-07	1.877686592129339e-07	-1.118010861376547e-06	-3.06406179571692e-07	-3.928405898439105e-08
